{
	"patcher" : 	{
		"fileversion" : 1,
		"appversion" : 		{
			"major" : 8,
			"minor" : 6,
			"revision" : 5,
			"architecture" : "x64",
			"modernui" : 1
		}
,
		"classnamespace" : "box",
		"rect" : [ 48.0, 177.0, 962.0, 702.0 ],
		"bglocked" : 0,
		"openinpresentation" : 0,
		"default_fontsize" : 12.0,
		"default_fontface" : 0,
		"default_fontname" : "Arial",
		"gridonopen" : 1,
		"gridsize" : [ 15.0, 15.0 ],
		"gridsnaponopen" : 1,
		"objectsnaponopen" : 1,
		"statusbarvisible" : 2,
		"toolbarvisible" : 1,
		"lefttoolbarpinned" : 0,
		"toptoolbarpinned" : 0,
		"righttoolbarpinned" : 0,
		"bottomtoolbarpinned" : 0,
		"toolbars_unpinned_last_save" : 0,
		"tallnewobj" : 0,
		"boxanimatetime" : 200,
		"enablehscroll" : 1,
		"enablevscroll" : 1,
		"devicewidth" : 0.0,
		"description" : "",
		"digest" : "",
		"tags" : "",
		"style" : "",
		"subpatcher_template" : "",
		"assistshowspatchername" : 0,
		"boxes" : [ 			{
				"box" : 				{
					"id" : "obj-10",
					"maxclass" : "button",
					"numinlets" : 1,
					"numoutlets" : 1,
					"outlettype" : [ "bang" ],
					"parameter_enable" : 0,
					"patching_rect" : [ 253.225808262825012, 37.0, 24.0, 24.0 ],
					"presentation" : 1,
					"presentation_rect" : [ 25.0, 32.0, 24.0, 24.0 ]
				}

			}
, 			{
				"box" : 				{
					"id" : "obj-4",
					"maxclass" : "newobj",
					"numinlets" : 1,
					"numoutlets" : 4,
					"outlettype" : [ "", "", "", "" ],
					"patching_rect" : [ 511.0, 38.0, 56.0, 22.0 ],
					"restore" : 					{
						"envLength" : [ 13 ],
						"live.dial" : [ 0.134724409448819 ],
						"live.dial[1]" : [ 0.306220472440945 ],
						"live.dial[2]" : [ 0.173700787401575 ],
						"live.gain~" : [ 0.0 ],
						"vst~" : [ 							{
								"filetype" : "C74Snapshot",
								"version" : 2,
								"minorversion" : 0,
								"name" : "ValhallaVintageVerb",
								"origin" : "ValhallaVintageVerb.vst3info",
								"type" : "VST3",
								"subtype" : "AudioEffect",
								"embed" : 1,
								"snapshot" : 								{
									"pluginname" : "ValhallaVintageVerb.vst3info",
									"plugindisplayname" : "ValhallaVintageVerb",
									"pluginsavedname" : "C74_VST3:/ValhallaVintageVerb",
									"pluginsaveduniqueid" : 608255483,
									"version" : 1,
									"isbank" : 0,
									"isbase64" : 1,
									"sliderorder" : [  ],
									"slidervisibility" : [ 1, 1, 1, 1, 1, 1, 1, 1, 1, 1, 1, 1, 1, 1, 1, 1, 1, 1 ],
									"blob" : "1152.VMjLgbGA...O+fWarAhckI2bo8la8HRLt.iHfTlai8FYo41Y8HRUTYTK3HxO9.BOVMEUy.Ea0cVZtMEcgQWY9vSRC8Vav8lak4Fc9bCNv3hUMczXWEjKt3hYt3hKt.kKt3hKt3BS5gEcyQjKtfjK3XTR5AkaA4hKtfjYisVUwvjKP4hKE4hKt3hKt3hKt3hKt3hKt3hKt3hKt3hKt3hKt3hKt3hKt3hKt3hKt3hKt3hKt3hKt3hKt3hKt3hKt3hKt3hKt3hKt3hKt3hKt3hKt3hKt3hKt3hKt3hKt3hKt3hKt3hKt3hKt3hKt3hKt3hKt3hKt3hKt3hKt3hKt3hKt3hKt3hKt3hKt3hKt3hKt3hKt3hKt3hKt3hKt3hKt3hKt3hKt3hKt3hKt3hKt3hKt3hKt3hKt3hKBY2ZUMTRSgzUH4hKtXWdOMCLFElYXcUV30zUZUGMV8DZDk1R1gjPHsFMwfUcQYkVzMlUOgFUEUkQvHjSncSZOYlcoU0Y2YjVmcmQgcVVUoEcQcEVsUEaUsVRsgkYtbTXvLlUZQWVUkEdMckV0QiUOgFTosjcyHUSn4hPhgWUwH1ZQ01TmAiUYgCRBE0ZYYEVvbmQiglKRM0amc0Sn4RZKYGVSwTLHMES1oVZLgGUS4zLlkGSyXVZHYlKqI1ZQQUVxUjUjgCRBwDcHMUSn4hPQsVSVgEMvjFR1MiPMomYCwjctLDS2wzPNgmYowjLhkVSn4BdT81aWkENHIESz4RZHYFQDMldEECVwASZHY2LR0DZtfFTm0jLh0TUGEldvjFR1MCZMgGSCwTdlkWSwXVdMEiY4wzctLUSn4BZPcVSxHFV3v1XqkzUOglKosTdlMES1g0PMQCUSwjdDMkSyvzPLkGRBgDRqESVt0TQZs1crkENHIDSz4RZHYlYToUamwVT3UkUhgCRBwDcTkFRlQEUXg2cVQFQqwVVrUkLh8FNrEFNHIESz4RZHYlcTgkdUYTTukEaYASSWoUczX0SnQTZKYGRBgTS3XTVRUjQisFLogjcyfFS5Q0PMACTS0TLPkVSz3xTMMiZS4DZtH0T0EkQQsVPGMlavjFR1MCdLIiZS4DMpMkSzPUZLkGQo0DdlMTSn4hPR81XFo0PUczX3fjPLQGUS4jcTkGSyX1TMQCSo0jLLkWS1gUZHYlc5ElLMQ0X5ASZHY2LBwDZtfGT0cWLggGL5ElZUY0Sn4RZKkGS4wTdLkGS4AUdLgGV40jdPMDSyfjPHIUUrM1ZI0FVMgiQYsFLogjcyHTS2gUZMECVo0DLXkWS4gzTMAiZowDZtHUXuc1QSUWSwnENHIDSn4hTi81XUokZQcjV3fjTNkGUogjYTckVHUkUZ01YFMFNHITS4QUZHU2LC4hKt3hKt3hKt3hKlIUUMQUTPkzUZESQFM1ZQQEV5UjQtDDQlAEMAcEV40zQtDDQ14hK5EjKt3hKt3hKt3hRUACTEEzZh8VVWgkdUYTTmE0UXwyKIMzasA2atUlaz4COuX0TTMCTrU2Yo41TzEFck4C."
								}

							}
 ]
					}
,
					"text" : "autopattr",
					"varname" : "u270001305"
				}

			}
, 			{
				"box" : 				{
					"id" : "obj-1",
					"maxclass" : "newobj",
					"numinlets" : 1,
					"numoutlets" : 1,
					"outlettype" : [ "" ],
					"patching_rect" : [ 575.0, 38.0, 116.0, 22.0 ],
					"saved_object_attributes" : 					{
						"client_rect" : [ 918, 306, 1318, 806 ],
						"parameter_enable" : 0,
						"parameter_mappable" : 0,
						"storage_rect" : [ 200, 200, 800, 500 ]
					}
,
					"text" : "pattrstorage params",
					"varname" : "params"
				}

			}
, 			{
				"box" : 				{
					"id" : "obj-35",
					"maxclass" : "newobj",
					"numinlets" : 2,
					"numoutlets" : 1,
					"outlettype" : [ "signal" ],
					"patching_rect" : [ 196.5, 308.870969951152802, 29.5, 22.0 ],
					"text" : "*~"
				}

			}
, 			{
				"box" : 				{
					"id" : "obj-30",
					"maxclass" : "newobj",
					"numinlets" : 2,
					"numoutlets" : 2,
					"outlettype" : [ "signal", "bang" ],
					"patching_rect" : [ 253.225808262825012, 96.774194240570068, 34.0, 22.0 ],
					"text" : "line~"
				}

			}
, 			{
				"box" : 				{
					"id" : "obj-31",
					"maxclass" : "message",
					"numinlets" : 2,
					"numoutlets" : 1,
					"outlettype" : [ "" ],
					"patching_rect" : [ 253.225808262825012, 66.129032731056213, 169.0, 22.0 ],
					"text" : "0, 1. 10000 1. 10000 0. 10000"
				}

			}
, 			{
				"box" : 				{
					"id" : "obj-28",
					"maxclass" : "newobj",
					"numinlets" : 2,
					"numoutlets" : 1,
					"outlettype" : [ "" ],
					"patching_rect" : [ 379.838712394237518, 308.870969951152802, 115.0, 22.0 ],
					"text" : "sprintf 0\\, 1. %i 0. %i"
				}

			}
, 			{
				"box" : 				{
					"id" : "obj-21",
					"maxclass" : "number",
					"minimum" : 1,
					"numinlets" : 1,
					"numoutlets" : 2,
					"outlettype" : [ "", "bang" ],
					"parameter_enable" : 0,
					"patching_rect" : [ 379.838712394237518, 274.0, 50.0, 22.0 ],
					"presentation" : 1,
					"presentation_rect" : [ 97.0, 33.0, 50.0, 22.0 ],
					"varname" : "envLength"
				}

			}
, 			{
				"box" : 				{
					"id" : "obj-59",
					"maxclass" : "newobj",
					"numinlets" : 3,
					"numoutlets" : 1,
					"outlettype" : [ "signal" ],
					"patching_rect" : [ 392.0, 423.0, 116.0, 22.0 ],
					"text" : "rampsmooth~ 20 20"
				}

			}
, 			{
				"box" : 				{
					"id" : "obj-57",
					"maxclass" : "newobj",
					"numinlets" : 3,
					"numoutlets" : 1,
					"outlettype" : [ "signal" ],
					"patching_rect" : [ 651.0, 428.0, 116.0, 22.0 ],
					"text" : "rampsmooth~ 20 20"
				}

			}
, 			{
				"box" : 				{
					"fontface" : 0,
					"fontname" : "Arial",
					"fontsize" : 12.0,
					"id" : "obj-54",
					"maxclass" : "number~",
					"mode" : 2,
					"numinlets" : 2,
					"numoutlets" : 2,
					"outlettype" : [ "signal", "float" ],
					"patching_rect" : [ 833.0, 391.0, 56.0, 22.0 ],
					"sig" : 0.0
				}

			}
, 			{
				"box" : 				{
					"id" : "obj-53",
					"maxclass" : "newobj",
					"numinlets" : 2,
					"numoutlets" : 1,
					"outlettype" : [ "signal" ],
					"patching_rect" : [ 996.5, 276.0, 62.0, 22.0 ],
					"text" : "phasor~ 4"
				}

			}
, 			{
				"box" : 				{
					"id" : "obj-46",
					"maxclass" : "newobj",
					"numinlets" : 2,
					"numoutlets" : 1,
					"outlettype" : [ "signal" ],
					"patching_rect" : [ 898.5, 292.0, 55.0, 22.0 ],
					"text" : "sah~ 0.5"
				}

			}
, 			{
				"box" : 				{
					"id" : "obj-43",
					"maxclass" : "live.dial",
					"numinlets" : 1,
					"numoutlets" : 2,
					"outlettype" : [ "", "float" ],
					"parameter_enable" : 1,
					"patching_rect" : [ 954.5, 145.0, 41.0, 48.0 ],
					"saved_attribute_attributes" : 					{
						"valueof" : 						{
							"parameter_initial" : [ 0.173700787401575 ],
							"parameter_initial_enable" : 1,
							"parameter_longname" : "live.dial[2]",
							"parameter_mmax" : 1.0,
							"parameter_mmin" : 0.01,
							"parameter_modmode" : 3,
							"parameter_shortname" : "live.dial",
							"parameter_type" : 0,
							"parameter_unitstyle" : 3
						}

					}
,
					"varname" : "live.dial[2]"
				}

			}
, 			{
				"box" : 				{
					"id" : "obj-44",
					"maxclass" : "newobj",
					"numinlets" : 2,
					"numoutlets" : 1,
					"outlettype" : [ "signal" ],
					"patching_rect" : [ 902.5, 248.0, 40.0, 22.0 ],
					"text" : "*~ 0.8"
				}

			}
, 			{
				"box" : 				{
					"id" : "obj-45",
					"maxclass" : "newobj",
					"numinlets" : 2,
					"numoutlets" : 1,
					"outlettype" : [ "signal" ],
					"patching_rect" : [ 902.5, 213.0, 63.0, 22.0 ],
					"text" : "cycle~ 0.1"
				}

			}
, 			{
				"box" : 				{
					"id" : "obj-39",
					"maxclass" : "live.dial",
					"numinlets" : 1,
					"numoutlets" : 2,
					"outlettype" : [ "", "float" ],
					"parameter_enable" : 1,
					"patching_rect" : [ 871.0, 133.0, 41.0, 48.0 ],
					"saved_attribute_attributes" : 					{
						"valueof" : 						{
							"parameter_initial" : [ 0.306220472440945 ],
							"parameter_initial_enable" : 1,
							"parameter_longname" : "live.dial[1]",
							"parameter_mmax" : 1.0,
							"parameter_mmin" : 0.01,
							"parameter_modmode" : 3,
							"parameter_shortname" : "live.dial",
							"parameter_type" : 0,
							"parameter_unitstyle" : 3
						}

					}
,
					"varname" : "live.dial[1]"
				}

			}
, 			{
				"box" : 				{
					"id" : "obj-41",
					"maxclass" : "newobj",
					"numinlets" : 2,
					"numoutlets" : 1,
					"outlettype" : [ "signal" ],
					"patching_rect" : [ 822.0, 248.0, 40.0, 22.0 ],
					"text" : "*~ 0.8"
				}

			}
, 			{
				"box" : 				{
					"id" : "obj-42",
					"maxclass" : "newobj",
					"numinlets" : 2,
					"numoutlets" : 1,
					"outlettype" : [ "signal" ],
					"patching_rect" : [ 822.0, 213.0, 63.0, 22.0 ],
					"text" : "cycle~ 0.1"
				}

			}
, 			{
				"box" : 				{
					"id" : "obj-36",
					"maxclass" : "live.dial",
					"numinlets" : 1,
					"numoutlets" : 2,
					"outlettype" : [ "", "float" ],
					"parameter_enable" : 1,
					"patching_rect" : [ 108.0, 339.0, 41.0, 48.0 ],
					"saved_attribute_attributes" : 					{
						"valueof" : 						{
							"parameter_initial" : [ 0.243858267716535 ],
							"parameter_initial_enable" : 1,
							"parameter_longname" : "live.dial",
							"parameter_mmax" : 1.0,
							"parameter_mmin" : 0.01,
							"parameter_modmode" : 3,
							"parameter_shortname" : "live.dial",
							"parameter_type" : 0,
							"parameter_unitstyle" : 3
						}

					}
,
					"varname" : "live.dial"
				}

			}
, 			{
				"box" : 				{
					"id" : "obj-33",
					"maxclass" : "newobj",
					"numinlets" : 2,
					"numoutlets" : 1,
					"outlettype" : [ "signal" ],
					"patching_rect" : [ 56.0, 476.0, 39.0, 22.0 ],
					"text" : "+~ 40"
				}

			}
, 			{
				"box" : 				{
					"id" : "obj-32",
					"maxclass" : "newobj",
					"numinlets" : 2,
					"numoutlets" : 1,
					"outlettype" : [ "signal" ],
					"patching_rect" : [ 56.0, 442.0, 37.0, 22.0 ],
					"text" : "*~ 20"
				}

			}
, 			{
				"box" : 				{
					"id" : "obj-29",
					"maxclass" : "newobj",
					"numinlets" : 2,
					"numoutlets" : 1,
					"outlettype" : [ "signal" ],
					"patching_rect" : [ 56.0, 407.0, 63.0, 22.0 ],
					"text" : "cycle~ 0.1"
				}

			}
, 			{
				"box" : 				{
					"id" : "obj-23",
					"maxclass" : "newobj",
					"numinlets" : 2,
					"numoutlets" : 1,
					"outlettype" : [ "signal" ],
					"patching_rect" : [ 76.0, 256.0, 30.0, 22.0 ],
					"text" : "*~ 6"
				}

			}
, 			{
				"box" : 				{
					"basictuning" : 440,
					"channelcount" : 8,
					"data" : 					{
						"clips" : [ 							{
								"absolutepath" : "senita-8ch.wav",
								"filename" : "senita-8ch.wav",
								"filekind" : "audiofile",
								"id" : "u468004567",
								"loop" : 1,
								"content_state" : 								{
									"loop" : 1
								}

							}
 ]
					}
,
					"followglobaltempo" : 0,
					"formantcorrection" : 0,
					"id" : "obj-22",
					"maxclass" : "mc.playlist~",
					"mode" : "basic",
					"numinlets" : 1,
					"numoutlets" : 4,
					"originallength" : [ 0.0, "ticks" ],
					"originaltempo" : 120.0,
					"outlettype" : [ "multichannelsignal", "signal", "", "dictionary" ],
					"parameter_enable" : 0,
					"patching_rect" : [ 76.0, 174.0, 150.0, 30.0 ],
					"pitchcorrection" : 0,
					"quality" : "basic",
					"timestretch" : [ 0 ]
				}

			}
, 			{
				"box" : 				{
					"id" : "obj-7",
					"lastchannelcount" : 0,
					"maxclass" : "live.gain~",
					"numinlets" : 2,
					"numoutlets" : 5,
					"orientation" : 1,
					"outlettype" : [ "signal", "signal", "", "float", "list" ],
					"parameter_enable" : 1,
					"patching_rect" : [ 926.0, 669.0, 136.0, 47.0 ],
					"saved_attribute_attributes" : 					{
						"valueof" : 						{
							"parameter_longname" : "live.gain~",
							"parameter_mmax" : 6.0,
							"parameter_mmin" : -70.0,
							"parameter_modmode" : 3,
							"parameter_shortname" : "gain",
							"parameter_type" : 0,
							"parameter_unitstyle" : 4
						}

					}
,
					"varname" : "live.gain~"
				}

			}
, 			{
				"box" : 				{
					"autosave" : 1,
					"bgmode" : 0,
					"border" : 0,
					"clickthrough" : 0,
					"id" : "obj-103",
					"maxclass" : "newobj",
					"numinlets" : 2,
					"numoutlets" : 8,
					"offset" : [ 0.0, 0.0 ],
					"outlettype" : [ "signal", "signal", "", "list", "int", "", "", "" ],
					"patching_rect" : [ 542.0, 651.0, 300.0, 100.0 ],
					"save" : [ "#N", "vst~", "loaduniqueid", 0, "C74_VST3:/ValhallaVintageVerb", ";" ],
					"saved_attribute_attributes" : 					{
						"valueof" : 						{
							"parameter_invisible" : 1,
							"parameter_longname" : "vst~",
							"parameter_modmode" : 0,
							"parameter_shortname" : "vst~",
							"parameter_type" : 3
						}

					}
,
					"saved_object_attributes" : 					{
						"parameter_enable" : 1,
						"parameter_mappable" : 0
					}
,
					"snapshot" : 					{
						"filetype" : "C74Snapshot",
						"version" : 2,
						"minorversion" : 0,
						"name" : "snapshotlist",
						"origin" : "vst~",
						"type" : "list",
						"subtype" : "Undefined",
						"embed" : 1,
						"snapshot" : 						{
							"pluginname" : "ValhallaVintageVerb.vst3info",
							"plugindisplayname" : "ValhallaVintageVerb",
							"pluginsavedname" : "C74_VST3:/ValhallaVintageVerb",
							"pluginsaveduniqueid" : 608255483,
							"version" : 1,
							"isbank" : 0,
							"isbase64" : 1,
							"sliderorder" : [  ],
							"slidervisibility" : [ 1, 1, 1, 1, 1, 1, 1, 1, 1, 1, 1, 1, 1, 1, 1, 1, 1, 1 ],
							"blob" : "1152.VMjLgbGA...O+fWarAhckI2bo8la8HRLt.iHfTlai8FYo41Y8HRUTYTK3HxO9.BOVMEUy.Ea0cVZtMEcgQWY9vSRC8Vav8lak4Fc9bCNv3hUMczXWEjKt3hYt3hKt.kKt3hKt3BS5gEcyQjKtfjK3XTR5AkaA4hKtfjYisVUwvjKP4hKE4hKt3hKt3hKt3hKt3hKt3hKt3hKt3hKt3hKt3hKt3hKt3hKt3hKt3hKt3hKt3hKt3hKt3hKt3hKt3hKt3hKt3hKt3hKt3hKt3hKt3hKt3hKt3hKt3hKt3hKt3hKt3hKt3hKt3hKt3hKt3hKt3hKt3hKt3hKt3hKt3hKt3hKt3hKt3hKt3hKt3hKt3hKt3hKt3hKt3hKt3hKt3hKt3hKt3hKt3hKt3hKt3hKt3hKt3hKt3hKBY2ZUMTRSgzUH4hKtXWdOMCLFElYXcUV30zUZUGMV8DZDk1R1gjPHsFMwfUcQYkVzMlUOgFUEUkQvHjSncSZOYlcoU0Y2YjVmcmQgcVVUoEcQcEVsUEaUsVRsgkYtbTXvLlUZQWVUkEdMckV0QiUOgFTosjcyHUSn4hPhgWUwH1ZQ01TmAiUYgCRBE0ZYYEVvbmQiglKRM0amc0Sn4RZKYGVSwTLHMES1oVZLgGUS4zLlkGSyXVZHYlKqI1ZQQUVxUjUjgCRBwDcHMUSn4hPQsVSVgEMvjFR1MiPMomYCwjctLDS2wzPNgmYowjLhkVSn4BdT81aWkENHIESz4RZHYFQDMldEECVwASZHY2LR0DZtfFTm0jLh0TUGEldvjFR1MCZMgGSCwTdlkWSwXVdMEiY4wzctLUSn4BZPcVSxHFV3v1XqkzUOglKosTdlMES1g0PMQCUSwjdDMkSyvzPLkGRBgDRqESVt0TQZs1crkENHIDSz4RZHYlYToUamwVT3UkUhgCRBwDcTkFRlQEUXg2cVQFQqwVVrUkLh8FNrEFNHIESz4RZHYlcTgkdUYTTukEaYASSWoUczX0SnQTZKYGRBgTS3XTVRUjQisFLogjcyfFS5Q0PMACTS0TLPkVSz3xTMMiZS4DZtH0T0EkQQsVPGMlavjFR1MCdLIiZS4DMpMkSzPUZLkGQo0DdlMTSn4hPR81XFo0PUczX3fjPLQGUS4jcTkGSyX1TMQCSo0jLLkWS1gUZHYlc5ElLMQ0X5ASZHY2LBwDZtfGT0cWLggGL5ElZUY0Sn4RZKkGS4wTdLkGS4AUdLgGV40jdPMDSyfjPHIUUrM1ZI0FVMgiQYsFLogjcyHTS2gUZMECVo0DLXkWS4gzTMAiZowDZtHUXuc1QSUWSwnENHIDSn4hTi81XUokZQcjV3fjTNkGUogjYTckVHUkUZ01YFMFNHITS4QUZHU2LC4hKt3hKt3hKt3hKlIUUMQUTPkzUZESQFM1ZQQEV5UjQtDDQlAEMAcEV40zQtDDQ14hK5EjKt3hKt3hKt3hRUACTEEzZh8VVWgkdUYTTmE0UXwyKIMzasA2atUlaz4COuX0TTMCTrU2Yo41TzEFck4C."
						}
,
						"snapshotlist" : 						{
							"current_snapshot" : 0,
							"entries" : [ 								{
									"filetype" : "C74Snapshot",
									"version" : 2,
									"minorversion" : 0,
									"name" : "ValhallaVintageVerb",
									"origin" : "ValhallaVintageVerb.vst3info",
									"type" : "VST3",
									"subtype" : "AudioEffect",
									"embed" : 0,
									"snapshot" : 									{
										"pluginname" : "ValhallaVintageVerb.vst3info",
										"plugindisplayname" : "ValhallaVintageVerb",
										"pluginsavedname" : "C74_VST3:/ValhallaVintageVerb",
										"pluginsaveduniqueid" : 608255483,
										"version" : 1,
										"isbank" : 0,
										"isbase64" : 1,
										"sliderorder" : [  ],
										"slidervisibility" : [ 1, 1, 1, 1, 1, 1, 1, 1, 1, 1, 1, 1, 1, 1, 1, 1, 1, 1 ],
										"blob" : "1152.VMjLgbGA...O+fWarAhckI2bo8la8HRLt.iHfTlai8FYo41Y8HRUTYTK3HxO9.BOVMEUy.Ea0cVZtMEcgQWY9vSRC8Vav8lak4Fc9bCNv3hUMczXWEjKt3hYt3hKt.kKt3hKt3BS5gEcyQjKtfjK3XTR5AkaA4hKtfjYisVUwvjKP4hKE4hKt3hKt3hKt3hKt3hKt3hKt3hKt3hKt3hKt3hKt3hKt3hKt3hKt3hKt3hKt3hKt3hKt3hKt3hKt3hKt3hKt3hKt3hKt3hKt3hKt3hKt3hKt3hKt3hKt3hKt3hKt3hKt3hKt3hKt3hKt3hKt3hKt3hKt3hKt3hKt3hKt3hKt3hKt3hKt3hKt3hKt3hKt3hKt3hKt3hKt3hKt3hKt3hKt3hKt3hKt3hKt3hKt3hKt3hKt3hKBY2ZUMTRSgzUH4hKtXWdOMCLFElYXcUV30zUZUGMV8DZDk1R1gjPHsFMwfUcQYkVzMlUOgFUEUkQvHjSncSZOYlcoU0Y2YjVmcmQgcVVUoEcQcEVsUEaUsVRsgkYtbTXvLlUZQWVUkEdMckV0QiUOgFTosjcyHUSn4hPhgWUwH1ZQ01TmAiUYgCRBE0ZYYEVvbmQiglKRM0amc0Sn4RZKYGVSwTLHMES1oVZLgGUS4zLlkGSyXVZHYlKqI1ZQQUVxUjUjgCRBwDcHMUSn4hPQsVSVgEMvjFR1MiPMomYCwjctLDS2wzPNgmYowjLhkVSn4BdT81aWkENHIESz4RZHYFQDMldEECVwASZHY2LR0DZtfFTm0jLh0TUGEldvjFR1MCZMgGSCwTdlkWSwXVdMEiY4wzctLUSn4BZPcVSxHFV3v1XqkzUOglKosTdlMES1g0PMQCUSwjdDMkSyvzPLkGRBgDRqESVt0TQZs1crkENHIDSz4RZHYlYToUamwVT3UkUhgCRBwDcTkFRlQEUXg2cVQFQqwVVrUkLh8FNrEFNHIESz4RZHYlcTgkdUYTTukEaYASSWoUczX0SnQTZKYGRBgTS3XTVRUjQisFLogjcyfFS5Q0PMACTS0TLPkVSz3xTMMiZS4DZtH0T0EkQQsVPGMlavjFR1MCdLIiZS4DMpMkSzPUZLkGQo0DdlMTSn4hPR81XFo0PUczX3fjPLQGUS4jcTkGSyX1TMQCSo0jLLkWS1gUZHYlc5ElLMQ0X5ASZHY2LBwDZtfGT0cWLggGL5ElZUY0Sn4RZKkGS4wTdLkGS4AUdLgGV40jdPMDSyfjPHIUUrM1ZI0FVMgiQYsFLogjcyHTS2gUZMECVo0DLXkWS4gzTMAiZowDZtHUXuc1QSUWSwnENHIDSn4hTi81XUokZQcjV3fjTNkGUogjYTckVHUkUZ01YFMFNHITS4QUZHU2LC4hKt3hKt3hKt3hKlIUUMQUTPkzUZESQFM1ZQQEV5UjQtDDQlAEMAcEV40zQtDDQ14hK5EjKt3hKt3hKt3hRUACTEEzZh8VVWgkdUYTTmE0UXwyKIMzasA2atUlaz4COuX0TTMCTrU2Yo41TzEFck4C."
									}
,
									"fileref" : 									{
										"name" : "ValhallaVintageVerb",
										"filename" : "ValhallaVintageVerb.maxsnap",
										"filepath" : "~/Documents/Max 8/Snapshots",
										"filepos" : -1,
										"snapshotfileid" : "4a44e52c28e0fc1b24e2899c27657217"
									}

								}
 ]
						}

					}
,
					"text" : "vst~ C74_VST3:/ValhallaVintageVerb",
					"varname" : "vst~",
					"viewvisibility" : 1
				}

			}
, 			{
				"box" : 				{
					"fontname" : "Arial",
					"fontsize" : 13.0,
					"id" : "obj-98",
					"maxclass" : "newobj",
					"numinlets" : 5,
					"numoutlets" : 1,
					"outlettype" : [ "signal" ],
					"patching_rect" : [ 485.0, 475.5, 149.0, 23.0 ],
					"text" : "comb~ 15 1 0.25 0. 0.25"
				}

			}
, 			{
				"box" : 				{
					"fontname" : "Arial",
					"fontsize" : 13.0,
					"id" : "obj-89",
					"maxclass" : "newobj",
					"numinlets" : 5,
					"numoutlets" : 1,
					"outlettype" : [ "signal" ],
					"patching_rect" : [ 262.0, 460.0, 149.0, 23.0 ],
					"text" : "comb~ 15 1 0.25 0. 0.25"
				}

			}
, 			{
				"box" : 				{
					"id" : "obj-87",
					"maxclass" : "newobj",
					"numinlets" : 0,
					"numoutlets" : 1,
					"outlettype" : [ "" ],
					"patching_rect" : [ 806.0, 454.0, 43.0, 22.0 ],
					"text" : "r bang"
				}

			}
, 			{
				"box" : 				{
					"id" : "obj-86",
					"maxclass" : "newobj",
					"numinlets" : 0,
					"numoutlets" : 1,
					"outlettype" : [ "" ],
					"patching_rect" : [ 1148.0, 459.0, 43.0, 22.0 ],
					"text" : "r bang"
				}

			}
, 			{
				"box" : 				{
					"id" : "obj-85",
					"maxclass" : "newobj",
					"numinlets" : 1,
					"numoutlets" : 0,
					"patching_rect" : [ 542.0, 241.0, 45.0, 22.0 ],
					"text" : "s bang"
				}

			}
, 			{
				"box" : 				{
					"id" : "obj-78",
					"maxclass" : "newobj",
					"numinlets" : 2,
					"numoutlets" : 1,
					"outlettype" : [ "" ],
					"patching_rect" : [ 1148.0, 495.0, 142.0, 22.0 ],
					"text" : "random @range 0.8 0.98"
				}

			}
, 			{
				"box" : 				{
					"id" : "obj-79",
					"maxclass" : "newobj",
					"numinlets" : 2,
					"numoutlets" : 1,
					"outlettype" : [ "" ],
					"patching_rect" : [ 997.0, 495.0, 135.0, 22.0 ],
					"text" : "random @range 10. 80."
				}

			}
, 			{
				"box" : 				{
					"id" : "obj-80",
					"maxclass" : "newobj",
					"numinlets" : 3,
					"numoutlets" : 1,
					"outlettype" : [ "signal" ],
					"patching_rect" : [ 884.0, 606.0, 151.0, 22.0 ],
					"text" : "allpass~ 250"
				}

			}
, 			{
				"box" : 				{
					"id" : "obj-81",
					"maxclass" : "comment",
					"numinlets" : 1,
					"numoutlets" : 0,
					"patching_rect" : [ 1016.0, 530.0, 83.0, 20.0 ],
					"text" : "feedback gain"
				}

			}
, 			{
				"box" : 				{
					"format" : 6,
					"id" : "obj-82",
					"maxclass" : "flonum",
					"maximum" : 1.0,
					"minimum" : 0.0,
					"numinlets" : 1,
					"numoutlets" : 2,
					"outlettype" : [ "", "bang" ],
					"parameter_enable" : 0,
					"patching_rect" : [ 1016.0, 560.0, 50.0, 22.0 ]
				}

			}
, 			{
				"box" : 				{
					"id" : "obj-83",
					"maxclass" : "comment",
					"numinlets" : 1,
					"numoutlets" : 0,
					"patching_rect" : [ 950.0, 530.0, 37.0, 20.0 ],
					"text" : "delay"
				}

			}
, 			{
				"box" : 				{
					"format" : 6,
					"id" : "obj-84",
					"maxclass" : "flonum",
					"minimum" : 0.0,
					"numinlets" : 1,
					"numoutlets" : 2,
					"outlettype" : [ "", "bang" ],
					"parameter_enable" : 0,
					"patching_rect" : [ 950.0, 560.0, 50.0, 22.0 ]
				}

			}
, 			{
				"box" : 				{
					"id" : "obj-66",
					"maxclass" : "newobj",
					"numinlets" : 2,
					"numoutlets" : 1,
					"outlettype" : [ "" ],
					"patching_rect" : [ 806.0, 495.0, 142.0, 22.0 ],
					"text" : "random @range 0.8 0.98"
				}

			}
, 			{
				"box" : 				{
					"id" : "obj-65",
					"maxclass" : "newobj",
					"numinlets" : 2,
					"numoutlets" : 1,
					"outlettype" : [ "" ],
					"patching_rect" : [ 655.0, 495.0, 135.0, 22.0 ],
					"text" : "random @range 10. 40."
				}

			}
, 			{
				"box" : 				{
					"id" : "obj-64",
					"maxclass" : "newobj",
					"numinlets" : 2,
					"numoutlets" : 2,
					"outlettype" : [ "bang", "" ],
					"patching_rect" : [ 386.0, 205.0, 34.0, 22.0 ],
					"text" : "sel 1"
				}

			}
, 			{
				"box" : 				{
					"id" : "obj-60",
					"maxclass" : "toggle",
					"numinlets" : 1,
					"numoutlets" : 1,
					"outlettype" : [ "int" ],
					"parameter_enable" : 0,
					"patching_rect" : [ 353.0, 139.0, 24.0, 24.0 ],
					"presentation" : 1,
					"presentation_rect" : [ 62.0, 32.0, 24.0, 24.0 ]
				}

			}
, 			{
				"box" : 				{
					"id" : "obj-58",
					"maxclass" : "newobj",
					"numinlets" : 2,
					"numoutlets" : 1,
					"outlettype" : [ "int" ],
					"patching_rect" : [ 386.0, 179.0, 33.0, 22.0 ],
					"text" : "== 1"
				}

			}
, 			{
				"box" : 				{
					"id" : "obj-26",
					"maxclass" : "newobj",
					"numinlets" : 2,
					"numoutlets" : 1,
					"outlettype" : [ "" ],
					"patching_rect" : [ 478.0, 189.0, 135.0, 22.0 ],
					"text" : "random @range 50 600"
				}

			}
, 			{
				"box" : 				{
					"id" : "obj-25",
					"maxclass" : "button",
					"numinlets" : 1,
					"numoutlets" : 1,
					"outlettype" : [ "bang" ],
					"parameter_enable" : 0,
					"patching_rect" : [ 449.0, 145.0, 24.0, 24.0 ]
				}

			}
, 			{
				"box" : 				{
					"id" : "obj-19",
					"maxclass" : "newobj",
					"numinlets" : 2,
					"numoutlets" : 1,
					"outlettype" : [ "bang" ],
					"patching_rect" : [ 449.0, 223.0, 37.0, 22.0 ],
					"text" : "delay"
				}

			}
, 			{
				"box" : 				{
					"id" : "obj-17",
					"maxclass" : "newobj",
					"numinlets" : 3,
					"numoutlets" : 1,
					"outlettype" : [ "signal" ],
					"patching_rect" : [ 542.0, 606.0, 151.0, 22.0 ],
					"text" : "allpass~ 250"
				}

			}
, 			{
				"box" : 				{
					"id" : "obj-16",
					"maxclass" : "comment",
					"numinlets" : 1,
					"numoutlets" : 0,
					"patching_rect" : [ 674.0, 530.0, 83.0, 20.0 ],
					"text" : "feedback gain"
				}

			}
, 			{
				"box" : 				{
					"format" : 6,
					"id" : "obj-14",
					"maxclass" : "flonum",
					"maximum" : 1.0,
					"minimum" : 0.0,
					"numinlets" : 1,
					"numoutlets" : 2,
					"outlettype" : [ "", "bang" ],
					"parameter_enable" : 0,
					"patching_rect" : [ 674.0, 560.0, 50.0, 22.0 ]
				}

			}
, 			{
				"box" : 				{
					"id" : "obj-13",
					"maxclass" : "comment",
					"numinlets" : 1,
					"numoutlets" : 0,
					"patching_rect" : [ 608.0, 530.0, 37.0, 20.0 ],
					"text" : "delay"
				}

			}
, 			{
				"box" : 				{
					"format" : 6,
					"id" : "obj-11",
					"maxclass" : "flonum",
					"minimum" : 0.0,
					"numinlets" : 1,
					"numoutlets" : 2,
					"outlettype" : [ "", "bang" ],
					"parameter_enable" : 0,
					"patching_rect" : [ 608.0, 560.0, 50.0, 22.0 ]
				}

			}
, 			{
				"box" : 				{
					"id" : "obj-6",
					"maxclass" : "newobj",
					"numinlets" : 2,
					"numoutlets" : 2,
					"outlettype" : [ "signal", "bang" ],
					"patching_rect" : [ 279.0, 305.0, 34.0, 22.0 ],
					"text" : "line~"
				}

			}
, 			{
				"box" : 				{
					"id" : "obj-5",
					"maxclass" : "message",
					"numinlets" : 2,
					"numoutlets" : 1,
					"outlettype" : [ "" ],
					"patching_rect" : [ 279.0, 274.0, 79.0, 22.0 ],
					"text" : "0, 1. 13 0. 13"
				}

			}
, 			{
				"box" : 				{
					"id" : "obj-3",
					"maxclass" : "newobj",
					"numinlets" : 2,
					"numoutlets" : 1,
					"outlettype" : [ "signal" ],
					"patching_rect" : [ 262.0, 338.0, 36.0, 22.0 ],
					"text" : "*~"
				}

			}
, 			{
				"box" : 				{
					"id" : "obj-2",
					"maxclass" : "ezdac~",
					"numinlets" : 2,
					"numoutlets" : 0,
					"patching_rect" : [ 929.0, 747.0, 45.0, 45.0 ]
				}

			}
 ],
		"lines" : [ 			{
				"patchline" : 				{
					"destination" : [ "obj-31", 0 ],
					"source" : [ "obj-10", 0 ]
				}

			}
, 			{
				"patchline" : 				{
					"destination" : [ "obj-7", 1 ],
					"source" : [ "obj-103", 1 ]
				}

			}
, 			{
				"patchline" : 				{
					"destination" : [ "obj-7", 0 ],
					"source" : [ "obj-103", 0 ]
				}

			}
, 			{
				"patchline" : 				{
					"destination" : [ "obj-17", 1 ],
					"source" : [ "obj-11", 0 ]
				}

			}
, 			{
				"patchline" : 				{
					"destination" : [ "obj-17", 2 ],
					"source" : [ "obj-14", 0 ]
				}

			}
, 			{
				"patchline" : 				{
					"destination" : [ "obj-103", 0 ],
					"order" : 1,
					"source" : [ "obj-17", 0 ]
				}

			}
, 			{
				"patchline" : 				{
					"destination" : [ "obj-80", 0 ],
					"order" : 0,
					"source" : [ "obj-17", 0 ]
				}

			}
, 			{
				"patchline" : 				{
					"destination" : [ "obj-5", 0 ],
					"order" : 2,
					"source" : [ "obj-19", 0 ]
				}

			}
, 			{
				"patchline" : 				{
					"destination" : [ "obj-58", 0 ],
					"order" : 1,
					"source" : [ "obj-19", 0 ]
				}

			}
, 			{
				"patchline" : 				{
					"destination" : [ "obj-85", 0 ],
					"order" : 0,
					"source" : [ "obj-19", 0 ]
				}

			}
, 			{
				"patchline" : 				{
					"destination" : [ "obj-28", 1 ],
					"order" : 0,
					"source" : [ "obj-21", 0 ]
				}

			}
, 			{
				"patchline" : 				{
					"destination" : [ "obj-28", 0 ],
					"order" : 1,
					"source" : [ "obj-21", 0 ]
				}

			}
, 			{
				"patchline" : 				{
					"destination" : [ "obj-23", 0 ],
					"source" : [ "obj-22", 0 ]
				}

			}
, 			{
				"patchline" : 				{
					"destination" : [ "obj-35", 0 ],
					"source" : [ "obj-23", 0 ]
				}

			}
, 			{
				"patchline" : 				{
					"destination" : [ "obj-19", 0 ],
					"order" : 1,
					"source" : [ "obj-25", 0 ]
				}

			}
, 			{
				"patchline" : 				{
					"destination" : [ "obj-26", 0 ],
					"order" : 0,
					"source" : [ "obj-25", 0 ]
				}

			}
, 			{
				"patchline" : 				{
					"destination" : [ "obj-19", 1 ],
					"source" : [ "obj-26", 0 ]
				}

			}
, 			{
				"patchline" : 				{
					"destination" : [ "obj-5", 1 ],
					"source" : [ "obj-28", 0 ]
				}

			}
, 			{
				"patchline" : 				{
					"destination" : [ "obj-32", 0 ],
					"source" : [ "obj-29", 0 ]
				}

			}
, 			{
				"patchline" : 				{
					"destination" : [ "obj-89", 0 ],
					"order" : 1,
					"source" : [ "obj-3", 0 ]
				}

			}
, 			{
				"patchline" : 				{
					"destination" : [ "obj-98", 0 ],
					"order" : 0,
					"source" : [ "obj-3", 0 ]
				}

			}
, 			{
				"patchline" : 				{
					"destination" : [ "obj-35", 1 ],
					"source" : [ "obj-30", 0 ]
				}

			}
, 			{
				"patchline" : 				{
					"destination" : [ "obj-30", 0 ],
					"source" : [ "obj-31", 0 ]
				}

			}
, 			{
				"patchline" : 				{
					"destination" : [ "obj-33", 0 ],
					"source" : [ "obj-32", 0 ]
				}

			}
, 			{
				"patchline" : 				{
					"destination" : [ "obj-89", 1 ],
					"order" : 1,
					"source" : [ "obj-33", 0 ]
				}

			}
, 			{
				"patchline" : 				{
					"destination" : [ "obj-98", 1 ],
					"order" : 0,
					"source" : [ "obj-33", 0 ]
				}

			}
, 			{
				"patchline" : 				{
					"destination" : [ "obj-3", 0 ],
					"source" : [ "obj-35", 0 ]
				}

			}
, 			{
				"patchline" : 				{
					"destination" : [ "obj-29", 0 ],
					"source" : [ "obj-36", 0 ]
				}

			}
, 			{
				"patchline" : 				{
					"destination" : [ "obj-42", 0 ],
					"source" : [ "obj-39", 0 ]
				}

			}
, 			{
				"patchline" : 				{
					"destination" : [ "obj-89", 3 ],
					"order" : 1,
					"source" : [ "obj-41", 0 ]
				}

			}
, 			{
				"patchline" : 				{
					"destination" : [ "obj-98", 3 ],
					"order" : 0,
					"source" : [ "obj-41", 0 ]
				}

			}
, 			{
				"patchline" : 				{
					"destination" : [ "obj-41", 0 ],
					"source" : [ "obj-42", 0 ]
				}

			}
, 			{
				"patchline" : 				{
					"destination" : [ "obj-45", 0 ],
					"source" : [ "obj-43", 0 ]
				}

			}
, 			{
				"patchline" : 				{
					"destination" : [ "obj-46", 0 ],
					"source" : [ "obj-44", 0 ]
				}

			}
, 			{
				"patchline" : 				{
					"destination" : [ "obj-44", 0 ],
					"source" : [ "obj-45", 0 ]
				}

			}
, 			{
				"patchline" : 				{
					"destination" : [ "obj-54", 0 ],
					"order" : 0,
					"source" : [ "obj-46", 0 ]
				}

			}
, 			{
				"patchline" : 				{
					"destination" : [ "obj-57", 0 ],
					"order" : 1,
					"source" : [ "obj-46", 0 ]
				}

			}
, 			{
				"patchline" : 				{
					"destination" : [ "obj-59", 0 ],
					"order" : 2,
					"source" : [ "obj-46", 0 ]
				}

			}
, 			{
				"patchline" : 				{
					"destination" : [ "obj-6", 0 ],
					"source" : [ "obj-5", 0 ]
				}

			}
, 			{
				"patchline" : 				{
					"destination" : [ "obj-46", 1 ],
					"source" : [ "obj-53", 0 ]
				}

			}
, 			{
				"patchline" : 				{
					"destination" : [ "obj-98", 4 ],
					"source" : [ "obj-57", 0 ]
				}

			}
, 			{
				"patchline" : 				{
					"destination" : [ "obj-64", 0 ],
					"source" : [ "obj-58", 0 ]
				}

			}
, 			{
				"patchline" : 				{
					"destination" : [ "obj-89", 4 ],
					"source" : [ "obj-59", 0 ]
				}

			}
, 			{
				"patchline" : 				{
					"destination" : [ "obj-3", 1 ],
					"source" : [ "obj-6", 0 ]
				}

			}
, 			{
				"patchline" : 				{
					"destination" : [ "obj-22", 0 ],
					"order" : 1,
					"source" : [ "obj-60", 0 ]
				}

			}
, 			{
				"patchline" : 				{
					"destination" : [ "obj-58", 0 ],
					"order" : 0,
					"source" : [ "obj-60", 0 ]
				}

			}
, 			{
				"patchline" : 				{
					"destination" : [ "obj-25", 0 ],
					"source" : [ "obj-64", 0 ]
				}

			}
, 			{
				"patchline" : 				{
					"destination" : [ "obj-11", 0 ],
					"source" : [ "obj-65", 0 ]
				}

			}
, 			{
				"patchline" : 				{
					"destination" : [ "obj-14", 0 ],
					"source" : [ "obj-66", 0 ]
				}

			}
, 			{
				"patchline" : 				{
					"destination" : [ "obj-2", 1 ],
					"source" : [ "obj-7", 1 ]
				}

			}
, 			{
				"patchline" : 				{
					"destination" : [ "obj-2", 0 ],
					"source" : [ "obj-7", 0 ]
				}

			}
, 			{
				"patchline" : 				{
					"destination" : [ "obj-82", 0 ],
					"source" : [ "obj-78", 0 ]
				}

			}
, 			{
				"patchline" : 				{
					"destination" : [ "obj-84", 0 ],
					"source" : [ "obj-79", 0 ]
				}

			}
, 			{
				"patchline" : 				{
					"destination" : [ "obj-103", 1 ],
					"source" : [ "obj-80", 0 ]
				}

			}
, 			{
				"patchline" : 				{
					"destination" : [ "obj-80", 2 ],
					"source" : [ "obj-82", 0 ]
				}

			}
, 			{
				"patchline" : 				{
					"destination" : [ "obj-80", 1 ],
					"source" : [ "obj-84", 0 ]
				}

			}
, 			{
				"patchline" : 				{
					"destination" : [ "obj-78", 0 ],
					"order" : 0,
					"source" : [ "obj-86", 0 ]
				}

			}
, 			{
				"patchline" : 				{
					"destination" : [ "obj-79", 0 ],
					"order" : 1,
					"source" : [ "obj-86", 0 ]
				}

			}
, 			{
				"patchline" : 				{
					"destination" : [ "obj-65", 0 ],
					"order" : 1,
					"source" : [ "obj-87", 0 ]
				}

			}
, 			{
				"patchline" : 				{
					"destination" : [ "obj-66", 0 ],
					"order" : 0,
					"source" : [ "obj-87", 0 ]
				}

			}
, 			{
				"patchline" : 				{
					"destination" : [ "obj-17", 0 ],
					"source" : [ "obj-89", 0 ]
				}

			}
, 			{
				"patchline" : 				{
					"destination" : [ "obj-17", 0 ],
					"source" : [ "obj-98", 0 ]
				}

			}
 ],
		"parameters" : 		{
			"obj-103" : [ "vst~", "vst~", 0 ],
			"obj-36" : [ "live.dial", "live.dial", 0 ],
			"obj-39" : [ "live.dial[1]", "live.dial", 0 ],
			"obj-43" : [ "live.dial[2]", "live.dial", 0 ],
			"obj-7" : [ "live.gain~", "gain", 0 ],
			"parameterbanks" : 			{
				"0" : 				{
					"index" : 0,
					"name" : "",
					"parameters" : [ "-", "-", "-", "-", "-", "-", "-", "-" ]
				}

			}
,
			"inherited_shortname" : 1
		}
,
		"dependency_cache" : [ 			{
				"name" : "ValhallaVintageVerb.maxsnap",
				"bootpath" : "~/Documents/Max 8/Snapshots",
				"patcherrelativepath" : "../Snapshots",
				"type" : "mx@s",
				"implicit" : 1
			}
, 			{
				"name" : "params.json",
				"bootpath" : "~/Documents/Max 8/Prototypes",
				"patcherrelativepath" : ".",
				"type" : "JSON",
				"implicit" : 1
			}
, 			{
				"name" : "senita-8ch.wav",
				"bootpath" : "C74:/media/msp",
				"type" : "WAVE",
				"implicit" : 1
			}
 ],
		"autosave" : 0,
		"styles" : [ 			{
				"name" : "rnbomonokai",
				"default" : 				{
					"accentcolor" : [ 0.501960784313725, 0.501960784313725, 0.501960784313725, 1.0 ],
					"bgcolor" : [ 0.0, 0.0, 0.0, 1.0 ],
					"bgfillcolor" : 					{
						"angle" : 270.0,
						"autogradient" : 0.0,
						"color" : [ 0.0, 0.0, 0.0, 1.0 ],
						"color1" : [ 0.031372549019608, 0.125490196078431, 0.211764705882353, 1.0 ],
						"color2" : [ 0.263682, 0.004541, 0.038797, 1.0 ],
						"proportion" : 0.39,
						"type" : "color"
					}
,
					"clearcolor" : [ 0.976470588235294, 0.96078431372549, 0.917647058823529, 1.0 ],
					"color" : [ 0.611764705882353, 0.125490196078431, 0.776470588235294, 1.0 ],
					"editing_bgcolor" : [ 0.976470588235294, 0.96078431372549, 0.917647058823529, 1.0 ],
					"elementcolor" : [ 0.749019607843137, 0.83921568627451, 1.0, 1.0 ],
					"fontname" : [ "Lato" ],
					"locked_bgcolor" : [ 0.976470588235294, 0.96078431372549, 0.917647058823529, 1.0 ],
					"stripecolor" : [ 0.796078431372549, 0.207843137254902, 1.0, 1.0 ],
					"textcolor" : [ 0.129412, 0.129412, 0.129412, 1.0 ]
				}
,
				"parentstyle" : "",
				"multi" : 0
			}
 ]
	}

}
