{
	"patcher" : 	{
		"fileversion" : 1,
		"appversion" : 		{
			"major" : 8,
			"minor" : 6,
			"revision" : 5,
			"architecture" : "x64",
			"modernui" : 1
		}
,
		"classnamespace" : "box",
		"rect" : [ 174.0, 568.0, 515.0, 286.0 ],
		"bglocked" : 0,
		"openinpresentation" : 1,
		"default_fontsize" : 12.0,
		"default_fontface" : 0,
		"default_fontname" : "Arial",
		"gridonopen" : 1,
		"gridsize" : [ 15.0, 15.0 ],
		"gridsnaponopen" : 1,
		"objectsnaponopen" : 1,
		"statusbarvisible" : 2,
		"toolbarvisible" : 1,
		"lefttoolbarpinned" : 0,
		"toptoolbarpinned" : 0,
		"righttoolbarpinned" : 0,
		"bottomtoolbarpinned" : 0,
		"toolbars_unpinned_last_save" : 0,
		"tallnewobj" : 0,
		"boxanimatetime" : 200,
		"enablehscroll" : 1,
		"enablevscroll" : 1,
		"devicewidth" : 0.0,
		"description" : "",
		"digest" : "",
		"tags" : "",
		"style" : "",
		"subpatcher_template" : "",
		"assistshowspatchername" : 0,
		"boxes" : [ 			{
				"box" : 				{
					"id" : "obj-2",
					"lastchannelcount" : 0,
					"maxclass" : "live.gain~",
					"numinlets" : 2,
					"numoutlets" : 5,
					"orientation" : 1,
					"outlettype" : [ "signal", "signal", "", "float", "list" ],
					"parameter_enable" : 1,
					"patching_rect" : [ 227.0, 309.0, 136.0, 36.0 ],
					"presentation" : 1,
					"presentation_rect" : [ 195.0, 132.0, 136.0, 36.0 ],
					"saved_attribute_attributes" : 					{
						"valueof" : 						{
							"parameter_longname" : "live.gain~[4]",
							"parameter_mmax" : 6.0,
							"parameter_mmin" : -70.0,
							"parameter_modmode" : 3,
							"parameter_shortname" : "live.gain~[4]",
							"parameter_type" : 0,
							"parameter_unitstyle" : 4
						}

					}
,
					"showname" : 0,
					"varname" : "live.gain~[4]"
				}

			}
, 			{
				"box" : 				{
					"id" : "obj-49",
					"maxclass" : "ezdac~",
					"numinlets" : 2,
					"numoutlets" : 0,
					"patching_rect" : [ 224.5, 382.5, 45.0, 45.0 ]
				}

			}
, 			{
				"box" : 				{
					"id" : "obj-48",
					"maxclass" : "newobj",
					"numinlets" : 1,
					"numoutlets" : 1,
					"outlettype" : [ "signal" ],
					"patching_rect" : [ 159.0, 94.0, 48.0, 22.0 ],
					"text" : "r~ mix4"
				}

			}
, 			{
				"box" : 				{
					"id" : "obj-47",
					"maxclass" : "newobj",
					"numinlets" : 1,
					"numoutlets" : 1,
					"outlettype" : [ "signal" ],
					"patching_rect" : [ 117.0, 94.0, 48.0, 22.0 ],
					"text" : "r~ mix3"
				}

			}
, 			{
				"box" : 				{
					"id" : "obj-46",
					"maxclass" : "newobj",
					"numinlets" : 1,
					"numoutlets" : 1,
					"outlettype" : [ "signal" ],
					"patching_rect" : [ 74.0, 94.0, 48.0, 22.0 ],
					"text" : "r~ mix2"
				}

			}
, 			{
				"box" : 				{
					"id" : "obj-43",
					"maxclass" : "newobj",
					"numinlets" : 1,
					"numoutlets" : 0,
					"patching_rect" : [ 149.0, 394.0, 42.0, 22.0 ],
					"text" : "s~ rev"
				}

			}
, 			{
				"box" : 				{
					"id" : "obj-44",
					"maxclass" : "newobj",
					"numinlets" : 2,
					"numoutlets" : 1,
					"outlettype" : [ "signal" ],
					"patching_rect" : [ 149.0, 362.0, 29.5, 22.0 ],
					"text" : "*~"
				}

			}
, 			{
				"box" : 				{
					"id" : "obj-41",
					"maxclass" : "newobj",
					"numinlets" : 1,
					"numoutlets" : 0,
					"patching_rect" : [ 109.0, 394.0, 42.0, 22.0 ],
					"text" : "s~ rev"
				}

			}
, 			{
				"box" : 				{
					"id" : "obj-42",
					"maxclass" : "newobj",
					"numinlets" : 2,
					"numoutlets" : 1,
					"outlettype" : [ "signal" ],
					"patching_rect" : [ 109.0, 362.0, 29.5, 22.0 ],
					"text" : "*~"
				}

			}
, 			{
				"box" : 				{
					"id" : "obj-39",
					"maxclass" : "newobj",
					"numinlets" : 1,
					"numoutlets" : 0,
					"patching_rect" : [ 74.0, 394.0, 42.0, 22.0 ],
					"text" : "s~ rev"
				}

			}
, 			{
				"box" : 				{
					"id" : "obj-40",
					"maxclass" : "newobj",
					"numinlets" : 2,
					"numoutlets" : 1,
					"outlettype" : [ "signal" ],
					"patching_rect" : [ 74.0, 362.0, 29.5, 22.0 ],
					"text" : "*~"
				}

			}
, 			{
				"box" : 				{
					"id" : "obj-38",
					"maxclass" : "newobj",
					"numinlets" : 1,
					"numoutlets" : 1,
					"outlettype" : [ "signal" ],
					"patching_rect" : [ 227.0, 154.0, 40.0, 22.0 ],
					"text" : "r~ rev"
				}

			}
, 			{
				"box" : 				{
					"id" : "obj-37",
					"maxclass" : "newobj",
					"numinlets" : 1,
					"numoutlets" : 1,
					"outlettype" : [ "signal" ],
					"patching_rect" : [ 27.75, 94.0, 48.0, 22.0 ],
					"text" : "r~ mix1"
				}

			}
, 			{
				"box" : 				{
					"id" : "obj-36",
					"maxclass" : "newobj",
					"numinlets" : 1,
					"numoutlets" : 0,
					"patching_rect" : [ 28.0, 394.0, 42.0, 22.0 ],
					"text" : "s~ rev"
				}

			}
, 			{
				"box" : 				{
					"floatoutput" : 1,
					"id" : "obj-35",
					"maxclass" : "dial",
					"mult" : 0.2,
					"numinlets" : 1,
					"numoutlets" : 1,
					"outlettype" : [ "float" ],
					"parameter_enable" : 0,
					"patching_rect" : [ 149.0, 316.0, 40.0, 40.0 ],
					"presentation" : 1,
					"presentation_rect" : [ 130.0, 176.0, 40.0, 40.0 ],
					"size" : 1.0
				}

			}
, 			{
				"box" : 				{
					"floatoutput" : 1,
					"id" : "obj-34",
					"maxclass" : "dial",
					"mult" : 0.2,
					"numinlets" : 1,
					"numoutlets" : 1,
					"outlettype" : [ "float" ],
					"parameter_enable" : 0,
					"patching_rect" : [ 109.0, 316.0, 40.0, 40.0 ],
					"presentation" : 1,
					"presentation_rect" : [ 90.0, 176.0, 40.0, 40.0 ],
					"size" : 1.0
				}

			}
, 			{
				"box" : 				{
					"floatoutput" : 1,
					"id" : "obj-33",
					"maxclass" : "dial",
					"mult" : 0.2,
					"numinlets" : 1,
					"numoutlets" : 1,
					"outlettype" : [ "float" ],
					"parameter_enable" : 0,
					"patching_rect" : [ 71.0, 316.0, 40.0, 40.0 ],
					"presentation" : 1,
					"presentation_rect" : [ 52.0, 176.0, 40.0, 40.0 ],
					"size" : 1.0
				}

			}
, 			{
				"box" : 				{
					"id" : "obj-28",
					"maxclass" : "newobj",
					"numinlets" : 2,
					"numoutlets" : 1,
					"outlettype" : [ "signal" ],
					"patching_rect" : [ 28.0, 362.0, 29.5, 22.0 ],
					"text" : "*~"
				}

			}
, 			{
				"box" : 				{
					"floatoutput" : 1,
					"id" : "obj-24",
					"maxclass" : "dial",
					"numinlets" : 1,
					"numoutlets" : 1,
					"outlettype" : [ "float" ],
					"parameter_enable" : 0,
					"patching_rect" : [ 32.0, 316.0, 40.0, 40.0 ],
					"presentation" : 1,
					"presentation_rect" : [ 13.0, 176.0, 40.0, 40.0 ],
					"size" : 1.0
				}

			}
, 			{
				"box" : 				{
					"autosave" : 1,
					"bgmode" : 0,
					"border" : 0,
					"clickthrough" : 0,
					"id" : "obj-16",
					"maxclass" : "newobj",
					"numinlets" : 2,
					"numoutlets" : 8,
					"offset" : [ 0.0, 0.0 ],
					"outlettype" : [ "signal", "signal", "", "list", "int", "", "", "" ],
					"patching_rect" : [ 227.0, 191.0, 300.0, 100.0 ],
					"presentation" : 1,
					"presentation_rect" : [ 195.0, 24.0, 300.0, 100.0 ],
					"save" : [ "#N", "vst~", "loaduniqueid", 0, "C74_VST3:/ValhallaVintageVerb", ";" ],
					"saved_attribute_attributes" : 					{
						"valueof" : 						{
							"parameter_invisible" : 1,
							"parameter_longname" : "vst~",
							"parameter_modmode" : 0,
							"parameter_shortname" : "vst~",
							"parameter_type" : 3
						}

					}
,
					"saved_object_attributes" : 					{
						"parameter_enable" : 1,
						"parameter_mappable" : 0
					}
,
					"snapshot" : 					{
						"filetype" : "C74Snapshot",
						"version" : 2,
						"minorversion" : 0,
						"name" : "snapshotlist",
						"origin" : "vst~",
						"type" : "list",
						"subtype" : "Undefined",
						"embed" : 1,
						"snapshot" : 						{
							"pluginname" : "ValhallaVintageVerb.vst3info",
							"plugindisplayname" : "ValhallaVintageVerb",
							"pluginsavedname" : "C74_VST3:/ValhallaVintageVerb",
							"pluginsaveduniqueid" : 608255483,
							"version" : 1,
							"isbank" : 0,
							"isbase64" : 1,
							"sliderorder" : [  ],
							"slidervisibility" : [ 1, 1, 1, 1, 1, 1, 1, 1, 1, 1, 1, 1, 1, 1, 1, 1, 1, 1 ],
							"blob" : "1131.VMjLgHFA...O+fWarAhckI2bo8la8HRLt.iHfTlai8FYo41Y8HRUTYTK3HxO9.BOVMEUy.Ea0cVZtMEcgQWY9vSRC8Vav8lak4Fc9biMz3hUMczXWEjKt3hYt3hKt.kKt3hKt3BS5gEcyQjKtfjKzXTR5AkaA4hKtfjYisVUwvjKP4hKE4hKt3hKt3hKt3hKt3hKt3hKt3hKt3hKt3hKt3hKt3hKt3hKt3hKt3hKt3hKt3hKt3hKt3hKt3hKt3hKt3hKt3hKt3hKt3hKt3hKt3hKt3hKt3hKt3hKt3hKt3hKt3hKt3hKt3hKt3hKt3hKt3hKt3hKt3hKt3hKt3hKt3hKt3hKt3hKt3hKt3hKt3hKt3hKt3hKt3hKt3hKt3hKt3hKt3hKt3hKt3hKt3hKt3hKt3hKt3hKBYmZUMTRSgzQH4hKtXWdOMCLFElYXcUV30zUZUGMV8DZDk1R1gjPHsFMwfUcQYkVzMlUOgFUEUkQvHjSncSZOYlcoU0Y2YjVmcmQgcVVUoEcQcEVsUEaUsVRsgkYtbTXvLlUZQWVUkEdMckV0QiUOgFTosjcyHUSn4hPhgWUwH1ZQ01TmAiUYgCRBE0ZYYEVvbmQiglKRM0amc0SnQTZKYGRBgDTIcUVDUkQgc1ZW8DZtj1R3QUZHYFTTkUZEYEY3fjPLQGVC4jctLDS14xPLICQS0DdTMUSx.UZHYFSUoUMUY0SnQTZKYGRBgTPQczXm0TLZgCRBwDcTkFRlgDUXkWSWMEL2YzX3fjPLQGVowTdtjGSyHVZMMiXo0zLLMES1QUZHYFRTgUdMcjU0k0UYgGLogjcyfGSyPzPLECTS4DLDMTS2o1PNkmK4wDZtHjTuMlQZM0YVkkbYY0Sn4RZKYGRBgDRqESVtkkZhsVQW8DZtj1RvfjPHUTQrIlbqcTTukEaYASSWoUczX0SnQTZKYGRBgDSEYzXqEEUZwVVVMVdqESXzASZHc2LBwDZtH0T0EEaTcVTWkENHIDSzgzPMACTS0jdTkVS5g0TNYGUC4DMpkFRlomdgoVTTkkcQcjV3fjPLQGS40DMpMkSzn1TNACR4wzcXkFSy.UZHYlYToUamECTvD0UOglKosDLpMDSvvzPNMCUS4TdXkWS4I1PLECRBgDS3DyXCU0QigCRBwDctjFRlwjdgIGNrIVS3XTVqASZHY2L3wTdLkGS4wTdLoGSowTLhMTS54xPNglKnQ0ZYcUV3kjUSUWTVkENHIDSzA0TLECVo0TLXMUSwHVdLgGUS0DMHkFRlomUZMyc5EVZyY0Sn4RZHYFUWo0UqYTV5clUOglZ4wDLHIDRvrlQRs1ZwjkaQc0SnAUdLACR3sTNt3hKt3hKt3hKt3hKtQUUCUEQTg2ZrM1YQcUVDUjQicVPP4RPHQEY1UTLhkWPP4RPL4hKi4hKt3hKt3hKtXlTU0DUQAURWoULEYzXqEEUXoWQFwyKIMzasA2atUlaz4COuX0TTMCTrU2Yo41TzEFck4C."
						}
,
						"snapshotlist" : 						{
							"current_snapshot" : 0,
							"entries" : [ 								{
									"filetype" : "C74Snapshot",
									"version" : 2,
									"minorversion" : 0,
									"name" : "ValhallaVintageVerb",
									"origin" : "ValhallaVintageVerb.vst3info",
									"type" : "VST3",
									"subtype" : "AudioEffect",
									"embed" : 0,
									"snapshot" : 									{
										"pluginname" : "ValhallaVintageVerb.vst3info",
										"plugindisplayname" : "ValhallaVintageVerb",
										"pluginsavedname" : "C74_VST3:/ValhallaVintageVerb",
										"pluginsaveduniqueid" : 608255483,
										"version" : 1,
										"isbank" : 0,
										"isbase64" : 1,
										"sliderorder" : [  ],
										"slidervisibility" : [ 1, 1, 1, 1, 1, 1, 1, 1, 1, 1, 1, 1, 1, 1, 1, 1, 1, 1 ],
										"blob" : "1131.VMjLgHFA...O+fWarAhckI2bo8la8HRLt.iHfTlai8FYo41Y8HRUTYTK3HxO9.BOVMEUy.Ea0cVZtMEcgQWY9vSRC8Vav8lak4Fc9biMz3hUMczXWEjKt3hYt3hKt.kKt3hKt3BS5gEcyQjKtfjKzXTR5AkaA4hKtfjYisVUwvjKP4hKE4hKt3hKt3hKt3hKt3hKt3hKt3hKt3hKt3hKt3hKt3hKt3hKt3hKt3hKt3hKt3hKt3hKt3hKt3hKt3hKt3hKt3hKt3hKt3hKt3hKt3hKt3hKt3hKt3hKt3hKt3hKt3hKt3hKt3hKt3hKt3hKt3hKt3hKt3hKt3hKt3hKt3hKt3hKt3hKt3hKt3hKt3hKt3hKt3hKt3hKt3hKt3hKt3hKt3hKt3hKt3hKt3hKt3hKt3hKt3hKBYmZUMTRSgzQH4hKtXWdOMCLFElYXcUV30zUZUGMV8DZDk1R1gjPHsFMwfUcQYkVzMlUOgFUEUkQvHjSncSZOYlcoU0Y2YjVmcmQgcVVUoEcQcEVsUEaUsVRsgkYtbTXvLlUZQWVUkEdMckV0QiUOgFTosjcyHUSn4hPhgWUwH1ZQ01TmAiUYgCRBE0ZYYEVvbmQiglKRM0amc0SnQTZKYGRBgDTIcUVDUkQgc1ZW8DZtj1R3QUZHYFTTkUZEYEY3fjPLQGVC4jctLDS14xPLICQS0DdTMUSx.UZHYFSUoUMUY0SnQTZKYGRBgTPQczXm0TLZgCRBwDcTkFRlgDUXkWSWMEL2YzX3fjPLQGVowTdtjGSyHVZMMiXo0zLLMES1QUZHYFRTgUdMcjU0k0UYgGLogjcyfGSyPzPLECTS4DLDMTS2o1PNkmK4wDZtHjTuMlQZM0YVkkbYY0Sn4RZKYGRBgDRqESVtkkZhsVQW8DZtj1RvfjPHUTQrIlbqcTTukEaYASSWoUczX0SnQTZKYGRBgDSEYzXqEEUZwVVVMVdqESXzASZHc2LBwDZtH0T0EEaTcVTWkENHIDSzgzPMACTS0jdTkVS5g0TNYGUC4DMpkFRlomdgoVTTkkcQcjV3fjPLQGS40DMpMkSzn1TNACR4wzcXkFSy.UZHYlYToUamECTvD0UOglKosDLpMDSvvzPNMCUS4TdXkWS4I1PLECRBgDS3DyXCU0QigCRBwDctjFRlwjdgIGNrIVS3XTVqASZHY2L3wTdLkGS4wTdLoGSowTLhMTS54xPNglKnQ0ZYcUV3kjUSUWTVkENHIDSzA0TLECVo0TLXMUSwHVdLgGUS0DMHkFRlomUZMyc5EVZyY0Sn4RZHYFUWo0UqYTV5clUOglZ4wDLHIDRvrlQRs1ZwjkaQc0SnAUdLACR3sTNt3hKt3hKt3hKt3hKtQUUCUEQTg2ZrM1YQcUVDUjQicVPP4RPHQEY1UTLhkWPP4RPL4hKi4hKt3hKt3hKtXlTU0DUQAURWoULEYzXqEEUXoWQFwyKIMzasA2atUlaz4COuX0TTMCTrU2Yo41TzEFck4C."
									}
,
									"fileref" : 									{
										"name" : "ValhallaVintageVerb",
										"filename" : "ValhallaVintageVerb.maxsnap",
										"filepath" : "~/Documents/Max 8/Snapshots",
										"filepos" : -1,
										"snapshotfileid" : "4a44e52c28e0fc1b24e2899c27657217"
									}

								}
 ]
						}

					}
,
					"text" : "vst~ C74_VST3:/ValhallaVintageVerb",
					"varname" : "vst~",
					"viewvisibility" : 1
				}

			}
, 			{
				"box" : 				{
					"channels" : 1,
					"id" : "obj-14",
					"lastchannelcount" : 0,
					"maxclass" : "live.gain~",
					"numinlets" : 1,
					"numoutlets" : 4,
					"outlettype" : [ "signal", "", "float", "list" ],
					"parameter_enable" : 1,
					"patching_rect" : [ 146.0, 128.0, 48.0, 136.0 ],
					"presentation" : 1,
					"presentation_rect" : [ 127.0, 20.0, 48.0, 136.0 ],
					"saved_attribute_attributes" : 					{
						"valueof" : 						{
							"parameter_initial" : [ -70 ],
							"parameter_initial_enable" : 1,
							"parameter_longname" : "live.gain~[3]",
							"parameter_mmax" : 6.0,
							"parameter_mmin" : -70.0,
							"parameter_modmode" : 3,
							"parameter_shortname" : "live.gain~",
							"parameter_type" : 0,
							"parameter_unitstyle" : 4
						}

					}
,
					"showname" : 0,
					"varname" : "live.gain~[3]"
				}

			}
, 			{
				"box" : 				{
					"channels" : 1,
					"id" : "obj-13",
					"lastchannelcount" : 0,
					"maxclass" : "live.gain~",
					"numinlets" : 1,
					"numoutlets" : 4,
					"outlettype" : [ "signal", "", "float", "list" ],
					"parameter_enable" : 1,
					"patching_rect" : [ 105.0, 128.0, 48.0, 136.0 ],
					"presentation" : 1,
					"presentation_rect" : [ 86.0, 20.0, 48.0, 136.0 ],
					"saved_attribute_attributes" : 					{
						"valueof" : 						{
							"parameter_initial" : [ -70 ],
							"parameter_initial_enable" : 1,
							"parameter_longname" : "live.gain~[2]",
							"parameter_mmax" : 6.0,
							"parameter_mmin" : -70.0,
							"parameter_modmode" : 3,
							"parameter_shortname" : "live.gain~",
							"parameter_type" : 0,
							"parameter_unitstyle" : 4
						}

					}
,
					"showname" : 0,
					"varname" : "live.gain~[2]"
				}

			}
, 			{
				"box" : 				{
					"channels" : 1,
					"id" : "obj-12",
					"lastchannelcount" : 0,
					"maxclass" : "live.gain~",
					"numinlets" : 1,
					"numoutlets" : 4,
					"outlettype" : [ "signal", "", "float", "list" ],
					"parameter_enable" : 1,
					"patching_rect" : [ 67.0, 128.0, 48.0, 136.0 ],
					"presentation" : 1,
					"presentation_rect" : [ 48.0, 20.0, 48.0, 136.0 ],
					"saved_attribute_attributes" : 					{
						"valueof" : 						{
							"parameter_initial" : [ -70 ],
							"parameter_initial_enable" : 1,
							"parameter_longname" : "live.gain~[1]",
							"parameter_mmax" : 6.0,
							"parameter_mmin" : -70.0,
							"parameter_modmode" : 3,
							"parameter_shortname" : "live.gain~",
							"parameter_type" : 0,
							"parameter_unitstyle" : 4
						}

					}
,
					"showname" : 0,
					"varname" : "live.gain~[1]"
				}

			}
, 			{
				"box" : 				{
					"channels" : 1,
					"id" : "obj-10",
					"lastchannelcount" : 0,
					"maxclass" : "live.gain~",
					"numinlets" : 1,
					"numoutlets" : 4,
					"outlettype" : [ "signal", "", "float", "list" ],
					"parameter_enable" : 1,
					"patching_rect" : [ 28.0, 128.0, 48.0, 136.0 ],
					"presentation" : 1,
					"presentation_rect" : [ 9.0, 20.0, 48.0, 136.0 ],
					"saved_attribute_attributes" : 					{
						"valueof" : 						{
							"parameter_initial" : [ -70 ],
							"parameter_initial_enable" : 1,
							"parameter_longname" : "live.gain~",
							"parameter_mmax" : 6.0,
							"parameter_mmin" : -70.0,
							"parameter_modmode" : 3,
							"parameter_shortname" : "live.gain~",
							"parameter_type" : 0,
							"parameter_unitstyle" : 4
						}

					}
,
					"showname" : 0,
					"varname" : "live.gain~"
				}

			}
 ],
		"lines" : [ 			{
				"patchline" : 				{
					"destination" : [ "obj-28", 0 ],
					"order" : 2,
					"source" : [ "obj-10", 0 ]
				}

			}
, 			{
				"patchline" : 				{
					"destination" : [ "obj-49", 1 ],
					"order" : 0,
					"source" : [ "obj-10", 0 ]
				}

			}
, 			{
				"patchline" : 				{
					"destination" : [ "obj-49", 0 ],
					"order" : 1,
					"source" : [ "obj-10", 0 ]
				}

			}
, 			{
				"patchline" : 				{
					"destination" : [ "obj-40", 0 ],
					"order" : 2,
					"source" : [ "obj-12", 0 ]
				}

			}
, 			{
				"patchline" : 				{
					"destination" : [ "obj-49", 1 ],
					"order" : 0,
					"source" : [ "obj-12", 0 ]
				}

			}
, 			{
				"patchline" : 				{
					"destination" : [ "obj-49", 0 ],
					"order" : 1,
					"source" : [ "obj-12", 0 ]
				}

			}
, 			{
				"patchline" : 				{
					"destination" : [ "obj-42", 0 ],
					"order" : 2,
					"source" : [ "obj-13", 0 ]
				}

			}
, 			{
				"patchline" : 				{
					"destination" : [ "obj-49", 1 ],
					"order" : 0,
					"source" : [ "obj-13", 0 ]
				}

			}
, 			{
				"patchline" : 				{
					"destination" : [ "obj-49", 0 ],
					"order" : 1,
					"source" : [ "obj-13", 0 ]
				}

			}
, 			{
				"patchline" : 				{
					"destination" : [ "obj-44", 0 ],
					"order" : 2,
					"source" : [ "obj-14", 0 ]
				}

			}
, 			{
				"patchline" : 				{
					"destination" : [ "obj-49", 1 ],
					"order" : 0,
					"source" : [ "obj-14", 0 ]
				}

			}
, 			{
				"patchline" : 				{
					"destination" : [ "obj-49", 0 ],
					"order" : 1,
					"source" : [ "obj-14", 0 ]
				}

			}
, 			{
				"patchline" : 				{
					"destination" : [ "obj-2", 1 ],
					"source" : [ "obj-16", 1 ]
				}

			}
, 			{
				"patchline" : 				{
					"destination" : [ "obj-2", 0 ],
					"source" : [ "obj-16", 0 ]
				}

			}
, 			{
				"patchline" : 				{
					"destination" : [ "obj-49", 1 ],
					"source" : [ "obj-2", 1 ]
				}

			}
, 			{
				"patchline" : 				{
					"destination" : [ "obj-49", 0 ],
					"source" : [ "obj-2", 0 ]
				}

			}
, 			{
				"patchline" : 				{
					"destination" : [ "obj-28", 1 ],
					"source" : [ "obj-24", 0 ]
				}

			}
, 			{
				"patchline" : 				{
					"destination" : [ "obj-36", 0 ],
					"source" : [ "obj-28", 0 ]
				}

			}
, 			{
				"patchline" : 				{
					"destination" : [ "obj-40", 1 ],
					"source" : [ "obj-33", 0 ]
				}

			}
, 			{
				"patchline" : 				{
					"destination" : [ "obj-42", 1 ],
					"source" : [ "obj-34", 0 ]
				}

			}
, 			{
				"patchline" : 				{
					"destination" : [ "obj-44", 1 ],
					"source" : [ "obj-35", 0 ]
				}

			}
, 			{
				"patchline" : 				{
					"destination" : [ "obj-10", 0 ],
					"source" : [ "obj-37", 0 ]
				}

			}
, 			{
				"patchline" : 				{
					"destination" : [ "obj-16", 1 ],
					"order" : 0,
					"source" : [ "obj-38", 0 ]
				}

			}
, 			{
				"patchline" : 				{
					"destination" : [ "obj-16", 0 ],
					"order" : 1,
					"source" : [ "obj-38", 0 ]
				}

			}
, 			{
				"patchline" : 				{
					"destination" : [ "obj-39", 0 ],
					"source" : [ "obj-40", 0 ]
				}

			}
, 			{
				"patchline" : 				{
					"destination" : [ "obj-41", 0 ],
					"source" : [ "obj-42", 0 ]
				}

			}
, 			{
				"patchline" : 				{
					"destination" : [ "obj-43", 0 ],
					"source" : [ "obj-44", 0 ]
				}

			}
, 			{
				"patchline" : 				{
					"destination" : [ "obj-12", 0 ],
					"source" : [ "obj-46", 0 ]
				}

			}
, 			{
				"patchline" : 				{
					"destination" : [ "obj-13", 0 ],
					"source" : [ "obj-47", 0 ]
				}

			}
, 			{
				"patchline" : 				{
					"destination" : [ "obj-14", 0 ],
					"source" : [ "obj-48", 0 ]
				}

			}
 ]
	}

}
